<svg width="268" height="70" viewBox="0 0 268 70" fill="none" xmlns="http://www.w3.org/2000/svg">
<path d="M4.69581 14.347H50.0021L54.6979 61.8714H0L4.69581 14.347Z" fill="#31C28D"/>
<rect x="17.2612" y="2.01753" width="20.6238" height="42.5927" rx="10.3119" stroke="#2FC18C" stroke-width="4.03509"/>
<path d="M31.2358 36.9642L31.2358 46.4794C31.2358 47.9127 30.074 49.0745 28.6408 49.0745C27.2076 49.0745 26.0457 47.9127 26.0457 46.4794L26.0457 36.9642" stroke="white" stroke-width="2.69006" stroke-linecap="round" stroke-linejoin="round"/>
<path d="M10.4753 37.8293L10.4753 32.2067C10.4753 26.7127 14.9291 22.2589 20.4231 22.2589L21.2881 22.2589C26.7821 22.2589 31.2358 26.7127 31.2358 32.2067L31.2358 37.8293" stroke="white" stroke-width="2.69006" stroke-linecap="round" stroke-linejoin="round"/>
<path d="M26.0459 34.3692L26.0459 36.0078L26.0459 38.6943C26.0459 40.1275 24.884 41.2894 23.4508 41.2894C22.0176 41.2894 20.8558 40.1275 20.8558 38.6943L20.8558 35.942L20.8558 34.3692" stroke="white" stroke-width="2.69006" stroke-linecap="round" stroke-linejoin="round"/>
<path d="M20.8555 34.3692L20.8555 36.0078L20.8555 38.6943C20.8555 40.1275 19.6936 41.2894 18.2604 41.2894C16.8272 41.2894 15.6653 40.1275 15.6653 38.6943L15.6653 35.942L15.6653 34.3692" stroke="white" stroke-width="2.69006" stroke-linecap="round" stroke-linejoin="round"/>
<path d="M15.6655 34.3692L15.6655 36.0078L15.6655 38.6943C15.6655 40.1275 14.5037 41.2894 13.0705 41.2894C11.6373 41.2894 10.4754 40.1275 10.4754 38.6943L10.4754 35.942L10.4754 34.3692" stroke="white" stroke-width="2.69006" stroke-linecap="round" stroke-linejoin="round"/>
<path d="M19.9906 46.4794C19.9906 47.3886 20.1309 48.2651 20.391 49.0884C20.6819 50.0091 21.1227 50.8633 21.6847 51.6222C23.2606 53.7502 25.7896 55.1296 28.6408 55.1296C31.492 55.1296 34.0211 53.7502 35.5969 51.6222C36.1589 50.8633 36.5997 50.0091 36.8906 49.0884C37.1507 48.2651 37.291 47.3886 37.291 46.4794" stroke="white" stroke-width="2.69006" stroke-linecap="round"/>
<circle cx="39.9026" cy="35.8675" r="4.48344" fill="white"/>
<path d="M74.4108 21.9545L76.8749 19.3496V30.2799L75.1852 28.907H85.7987V33.1313H75.1852L76.8749 31.6528V43.692H71.4186V17.7303H87.3652V21.9545H74.4108ZM91.1511 43.692V17.7303H101.677C104.399 17.7303 106.429 18.3522 107.767 19.596C109.116 20.8281 109.791 22.6058 109.791 24.9291C109.791 26.2668 109.533 27.4109 109.016 28.3614C108.512 29.3001 107.884 30.0276 107.133 30.5439C106.394 31.0602 105.678 31.3477 104.986 31.4064C105.701 31.4533 106.376 31.6352 107.01 31.952C107.655 32.2571 108.183 32.7441 108.594 33.4129C109.005 34.0817 109.21 34.9794 109.21 36.1059C109.21 36.939 109.21 37.7604 109.21 38.57C109.21 39.3797 109.21 40.2069 109.21 41.0518C109.21 41.6268 109.251 42.1607 109.333 42.6535C109.427 43.1346 109.562 43.4808 109.738 43.692H104.264C104.111 43.4573 103.988 43.1053 103.894 42.6359C103.8 42.1548 103.754 41.6268 103.754 41.0518C103.754 40.3008 103.754 39.585 103.754 38.9045C103.754 38.2121 103.754 37.4905 103.754 36.7395C103.754 35.7186 103.49 34.9325 102.961 34.381C102.433 33.8177 101.589 33.5361 100.427 33.5361H95.041L96.5019 31.7936V43.692H91.1511ZM96.5019 31.3008L95.041 29.3118H100.497C101.201 29.3118 101.829 29.1534 102.381 28.8366C102.932 28.5198 103.366 28.068 103.683 27.4813C104.012 26.8946 104.176 26.2082 104.176 25.422C104.176 24.319 103.842 23.4624 103.173 22.8522C102.516 22.242 101.589 21.9369 100.392 21.9369H94.9178L96.5019 20.1592V31.3008ZM124.583 44.1144C122.963 44.1144 121.45 43.821 120.041 43.2343C118.633 42.6476 117.395 41.7852 116.328 40.647C115.26 39.5088 114.421 38.1065 113.811 36.4403C113.201 34.7623 112.895 32.8438 112.895 30.6847C112.895 28.5139 113.195 26.6013 113.793 24.9467C114.403 23.2805 115.242 21.8841 116.31 20.7577C117.378 19.6312 118.616 18.7805 120.024 18.2055C121.432 17.6305 122.952 17.343 124.583 17.343C126.202 17.343 127.716 17.6305 129.124 18.2055C130.544 18.7805 131.787 19.6312 132.855 20.7577C133.923 21.8841 134.756 23.2805 135.354 24.9467C135.953 26.6013 136.252 28.5139 136.252 30.6847C136.252 32.8438 135.947 34.7623 135.337 36.4403C134.738 38.1065 133.899 39.5088 132.82 40.647C131.752 41.7852 130.508 42.6476 129.088 43.2343C127.68 43.821 126.178 44.1144 124.583 44.1144ZM124.583 39.7317C125.674 39.7317 126.683 39.4325 127.61 38.8341C128.549 38.2356 129.3 37.2734 129.863 35.9475C130.426 34.6098 130.708 32.8555 130.708 30.6847C130.708 28.5022 130.42 26.7538 129.845 25.4396C129.282 24.1254 128.537 23.1808 127.61 22.6058C126.683 22.0191 125.674 21.7257 124.583 21.7257C123.491 21.7257 122.476 22.0191 121.538 22.6058C120.611 23.1808 119.865 24.1254 119.302 25.4396C118.739 26.7538 118.457 28.5022 118.457 30.6847C118.457 32.8673 118.739 34.6215 119.302 35.9475C119.865 37.2734 120.611 38.2356 121.538 38.8341C122.476 39.4325 123.491 39.7317 124.583 39.7317ZM145.197 43.692H139.864V17.7303H148.347L157.042 41.7206L156.127 41.9495V17.7303H161.443V43.692H152.906L144.211 19.772L145.197 19.5432V43.692ZM182.981 21.9545H174.41L176.592 19.3496V43.692H171.153V19.3496L173.406 21.9545H164.782V17.7303H182.981V21.9545ZM182.627 35.4018V32.0576H195.458V35.4018H182.627ZM202.364 21.9545L204.828 19.3496V30.1039L203.596 28.555H213.171V32.7793H203.596L204.828 31.2304V42.0727L202.364 39.4677H215.125V43.692H199.336V17.7303H215.125V21.9545H202.364ZM224.746 43.692H219.413V17.7303H227.896L236.591 41.7206L235.676 41.9495V17.7303H240.992V43.692H232.455L223.76 19.772L224.746 19.5432V43.692ZM245.299 43.692V17.7303H253.694C255.431 17.7303 257.009 18.0471 258.429 18.6807C259.861 19.3026 261.087 20.1886 262.108 21.3385C263.14 22.4767 263.932 23.8379 264.484 25.422C265.035 27.0061 265.311 28.7545 265.311 30.6671C265.311 32.5798 265.035 34.334 264.484 35.9299C263.932 37.5257 263.14 38.9045 262.108 40.0661C261.087 41.2161 259.861 42.1079 258.429 42.7415C257.009 43.3752 255.431 43.692 253.694 43.692H245.299ZM250.79 42.0727L248.326 39.4677H252.99C254.258 39.4677 255.402 39.1157 256.423 38.4116C257.455 37.6958 258.271 36.6808 258.869 35.3666C259.468 34.0407 259.767 32.4742 259.767 30.6671C259.767 28.8483 259.468 27.2936 258.869 26.0028C258.271 24.7003 257.455 23.7029 256.423 23.0106C255.402 22.3066 254.258 21.9545 252.99 21.9545H248.326L250.79 19.3496V42.0727Z" fill="white"/>
<path d="M108.086 64.8429C106.878 64.8429 105.809 64.5749 104.88 64.0387C103.959 63.495 103.234 62.755 102.706 61.8186C102.185 60.8747 101.924 59.8024 101.924 58.6018C101.924 57.4011 102.185 56.3364 102.706 55.4076C103.234 54.4788 103.959 53.7501 104.88 53.2215C105.809 52.6929 106.878 52.4286 108.086 52.4286C109.294 52.4286 110.359 52.6929 111.28 53.2215C112.209 53.7501 112.934 54.4788 113.455 55.4076C113.984 56.3364 114.248 57.4011 114.248 58.6018C114.248 59.8024 113.984 60.8747 113.455 61.8186C112.934 62.755 112.209 63.495 111.28 64.0387C110.359 64.5749 109.294 64.8429 108.086 64.8429ZM108.086 63.0759C108.917 63.0759 109.649 62.8909 110.283 62.5209C110.918 62.1509 111.412 61.6299 111.767 60.9578C112.13 60.2857 112.311 59.5004 112.311 58.6018C112.311 57.7032 112.13 56.9254 111.767 56.2684C111.412 55.6039 110.918 55.0942 110.283 54.7393C109.649 54.3768 108.917 54.1956 108.086 54.1956C107.263 54.1956 106.53 54.3768 105.889 54.7393C105.254 55.0942 104.756 55.6039 104.393 56.2684C104.038 56.9254 103.861 57.7032 103.861 58.6018C103.861 59.5004 104.038 60.2857 104.393 60.9578C104.756 61.6299 105.254 62.1509 105.889 62.5209C106.53 62.8909 107.263 63.0759 108.086 63.0759ZM125.864 64.6277V58.8623C125.864 58.5149 125.864 58.2318 125.864 58.0128C125.864 57.7862 125.864 57.571 125.864 57.3671C125.864 56.7404 125.758 56.1929 125.546 55.7247C125.335 55.2566 125.003 54.8941 124.55 54.6374C124.097 54.3806 123.504 54.2522 122.771 54.2522C122.13 54.2522 121.533 54.4184 120.982 54.7506C120.438 55.0753 120 55.5171 119.668 56.0759C119.343 56.6271 119.181 57.2463 119.181 57.9335L118.082 57.5144C118.082 56.5705 118.312 55.7134 118.773 54.9432C119.241 54.173 119.86 53.5613 120.631 53.1082C121.408 52.6476 122.254 52.4173 123.168 52.4173C124.097 52.4173 124.908 52.5947 125.603 52.9496C126.298 53.3046 126.834 53.8143 127.212 54.4788C127.597 55.1357 127.789 55.9286 127.789 56.8574C127.789 57.1897 127.789 57.5522 127.789 57.9448C127.789 58.3375 127.789 58.7037 127.789 59.0435V64.6277H125.864ZM117.255 64.6277V52.5985H119.181V64.6277H117.255ZM133.221 46.9237V64.6277H131.318V46.9237H133.221ZM136.859 64.6277V52.5985H138.762V64.6277H136.859ZM137.822 49.8347C137.467 49.8347 137.157 49.7366 136.893 49.5402C136.636 49.3363 136.508 49.0607 136.508 48.7134C136.508 48.3736 136.636 48.1055 136.893 47.9092C137.157 47.7053 137.467 47.6033 137.822 47.6033C138.176 47.6033 138.482 47.7053 138.739 47.9092C138.996 48.1055 139.124 48.3736 139.124 48.7134C139.124 49.0607 138.996 49.3363 138.739 49.5402C138.482 49.7366 138.176 49.8347 137.822 49.8347ZM150.951 64.6277V58.8623C150.951 58.5149 150.951 58.2318 150.951 58.0128C150.951 57.7862 150.951 57.571 150.951 57.3671C150.951 56.7404 150.845 56.1929 150.634 55.7247C150.422 55.2566 150.09 54.8941 149.637 54.6374C149.184 54.3806 148.591 54.2522 147.859 54.2522C147.217 54.2522 146.62 54.4184 146.069 54.7506C145.525 55.0753 145.087 55.5171 144.755 56.0759C144.43 56.6271 144.268 57.2463 144.268 57.9335L143.169 57.5144C143.169 56.5705 143.4 55.7134 143.86 54.9432C144.329 54.173 144.948 53.5613 145.718 53.1082C146.496 52.6476 147.342 52.4173 148.255 52.4173C149.184 52.4173 149.996 52.5947 150.69 52.9496C151.385 53.3046 151.921 53.8143 152.299 54.4788C152.684 55.1357 152.877 55.9286 152.877 56.8574C152.877 57.1897 152.877 57.5522 152.877 57.9448C152.877 58.3375 152.877 58.7037 152.877 59.0435V64.6277H150.951ZM142.343 64.6277V52.5985H144.268V64.6277H142.343ZM156.859 59.3833V57.6616H166.158L165.818 58.228C165.818 58.1827 165.818 58.1412 165.818 58.1034C165.818 58.0581 165.818 58.0166 165.818 57.9788C165.818 57.2841 165.671 56.6498 165.377 56.0759C165.09 55.4944 164.659 55.03 164.085 54.6827C163.511 54.3353 162.802 54.1616 161.956 54.1616C161.103 54.1616 160.351 54.3429 159.702 54.7053C159.052 55.0678 158.546 55.5813 158.184 56.2458C157.822 56.9027 157.64 57.6881 157.64 58.6018C157.64 59.5306 157.814 60.331 158.161 61.0031C158.516 61.6752 159.018 62.1924 159.668 62.5549C160.317 62.9173 161.087 63.0986 161.979 63.0986C162.613 63.0986 163.164 63.0344 163.632 62.906C164.1 62.7701 164.486 62.5926 164.788 62.3737C165.097 62.1471 165.331 61.9017 165.49 61.6374C165.648 61.3731 165.743 61.1088 165.773 60.8445H167.699C167.661 61.3278 167.51 61.8073 167.246 62.283C166.981 62.7588 166.607 63.193 166.124 63.5856C165.641 63.9708 165.048 64.2804 164.346 64.5144C163.644 64.7485 162.836 64.8656 161.922 64.8656C160.714 64.8656 159.649 64.6013 158.728 64.0727C157.806 63.5441 157.081 62.8116 156.553 61.8753C156.032 60.9389 155.771 59.8629 155.771 58.6471C155.771 57.4162 156.036 56.3364 156.564 55.4076C157.093 54.4712 157.822 53.7388 158.75 53.2102C159.679 52.6816 160.74 52.4173 161.933 52.4173C163.149 52.4173 164.202 52.6816 165.093 53.2102C165.984 53.7388 166.672 54.4637 167.155 55.3849C167.638 56.2986 167.88 57.3407 167.88 58.5112C167.88 58.632 167.876 58.7906 167.869 58.9869C167.861 59.1832 167.85 59.3154 167.835 59.3833H156.859ZM181.143 64.8543C180.418 64.8543 179.746 64.7787 179.127 64.6277C178.515 64.4691 177.979 64.2426 177.519 63.9481C177.066 63.646 176.711 63.276 176.454 62.8381C176.205 62.4001 176.08 61.8979 176.08 61.3316C176.08 61.2712 176.08 61.2108 176.08 61.1503C176.08 61.0824 176.08 61.0257 176.08 60.9804H178.017C178.017 61.0257 178.017 61.0635 178.017 61.0937C178.017 61.1239 178.017 61.1692 178.017 61.2296C178.017 61.8413 178.3 62.3095 178.867 62.6342C179.433 62.9513 180.207 63.1099 181.189 63.1099C181.793 63.1099 182.333 63.0495 182.808 62.9287C183.284 62.8079 183.658 62.6228 183.93 62.3737C184.209 62.1245 184.349 61.8111 184.349 61.4335C184.349 60.8068 184.054 60.3612 183.465 60.0969C182.884 59.8251 182.012 59.591 180.849 59.3947C180.237 59.289 179.656 59.153 179.104 58.9869C178.553 58.8132 178.062 58.5905 177.632 58.3186C177.209 58.0468 176.873 57.7107 176.624 57.3105C176.382 56.9027 176.261 56.4157 176.261 55.8493C176.261 55.1169 176.477 54.4977 176.907 53.9917C177.345 53.4782 177.934 53.0893 178.674 52.825C179.414 52.5532 180.237 52.4173 181.143 52.4173C182.019 52.4173 182.827 52.557 183.567 52.8364C184.307 53.1158 184.9 53.5235 185.346 54.0597C185.799 54.5883 186.025 55.2415 186.025 56.0192C186.025 56.0494 186.025 56.0872 186.025 56.1325C186.025 56.1703 186.025 56.208 186.025 56.2458H184.1C184.1 56.208 184.1 56.1778 184.1 56.1552C184.1 56.1325 184.1 56.1061 184.1 56.0759C184.1 55.6379 183.96 55.2792 183.681 54.9998C183.401 54.7129 183.039 54.5014 182.593 54.3655C182.148 54.222 181.672 54.1503 181.166 54.1503C180.69 54.1503 180.222 54.2032 179.761 54.3089C179.301 54.407 178.919 54.5732 178.617 54.8073C178.315 55.0413 178.164 55.3623 178.164 55.77C178.164 56.1778 178.304 56.5063 178.583 56.7555C178.87 56.9971 179.271 57.1972 179.784 57.3558C180.305 57.5068 180.917 57.6465 181.619 57.7749C182.246 57.8882 182.839 58.0317 183.397 58.2053C183.956 58.3715 184.447 58.5867 184.87 58.851C185.3 59.1153 185.636 59.4513 185.878 59.8591C186.127 60.2593 186.252 60.7501 186.252 61.3316C186.252 61.9206 186.116 62.4341 185.844 62.872C185.58 63.31 185.21 63.6763 184.734 63.9708C184.266 64.2653 183.722 64.4842 183.103 64.6277C182.491 64.7787 181.838 64.8543 181.143 64.8543ZM193.757 64.8089C193.387 64.8089 193.025 64.7674 192.67 64.6844C192.315 64.6013 191.994 64.454 191.707 64.2426C191.428 64.0236 191.205 63.7178 191.039 63.3251C190.873 62.9249 190.789 62.4114 190.789 61.7847C190.789 61.6261 190.789 61.4637 190.789 61.2976C190.789 61.1239 190.789 60.9427 190.789 60.7539V54.2975H187.856V52.5985H189.736C189.993 52.5985 190.193 52.591 190.336 52.5759C190.48 52.5532 190.582 52.5041 190.642 52.4286C190.71 52.3455 190.752 52.2209 190.767 52.0548C190.782 51.8811 190.789 51.6433 190.789 51.3412V48.6114H192.726V52.5985H196.487V54.2975H192.726V60.1309C192.726 60.297 192.726 60.4594 192.726 60.618C192.726 60.7766 192.726 60.9238 192.726 61.0597C192.726 61.7016 192.802 62.2038 192.953 62.5662C193.111 62.9287 193.463 63.1099 194.006 63.1099C194.225 63.1099 194.433 63.091 194.629 63.0533C194.826 63.0155 194.973 62.9778 195.071 62.94V64.6164C194.943 64.6617 194.761 64.7032 194.527 64.741C194.301 64.7863 194.044 64.8089 193.757 64.8089ZM204.254 64.8429C203.046 64.8429 201.978 64.5749 201.049 64.0387C200.128 63.495 199.403 62.755 198.874 61.8186C198.353 60.8747 198.093 59.8024 198.093 58.6018C198.093 57.4011 198.353 56.3364 198.874 55.4076C199.403 54.4788 200.128 53.7501 201.049 53.2215C201.978 52.6929 203.046 52.4286 204.254 52.4286C205.463 52.4286 206.527 52.6929 207.449 53.2215C208.377 53.7501 209.102 54.4788 209.623 55.4076C210.152 56.3364 210.416 57.4011 210.416 58.6018C210.416 59.8024 210.152 60.8747 209.623 61.8186C209.102 62.755 208.377 63.495 207.449 64.0387C206.527 64.5749 205.463 64.8429 204.254 64.8429ZM204.254 63.0759C205.085 63.0759 205.817 62.8909 206.452 62.5209C207.086 62.1509 207.581 61.6299 207.936 60.9578C208.298 60.2857 208.479 59.5004 208.479 58.6018C208.479 57.7032 208.298 56.9254 207.936 56.2684C207.581 55.6039 207.086 55.0942 206.452 54.7393C205.817 54.3768 205.085 54.1956 204.254 54.1956C203.431 54.1956 202.699 54.3768 202.057 54.7393C201.423 55.0942 200.924 55.6039 200.562 56.2684C200.207 56.9254 200.029 57.7032 200.029 58.6018C200.029 59.5004 200.207 60.2857 200.562 60.9578C200.924 61.6299 201.423 62.1509 202.057 62.5209C202.699 62.8909 203.431 63.0759 204.254 63.0759ZM213.424 64.6277V52.5985H215.349V56.2911L214.715 56.0645C214.76 55.619 214.873 55.181 215.055 54.7506C215.236 54.3126 215.485 53.92 215.802 53.5726C216.127 53.2177 216.531 52.9383 217.014 52.7344C217.497 52.523 218.064 52.4173 218.713 52.4173C219.196 52.4173 219.589 52.4588 219.891 52.5419C220.201 52.6174 220.393 52.6778 220.469 52.7231L219.97 54.6147C219.895 54.5618 219.74 54.4939 219.506 54.4108C219.28 54.3278 218.955 54.2862 218.532 54.2862C217.905 54.2862 217.384 54.3995 216.969 54.626C216.561 54.8526 216.236 55.1546 215.995 55.5322C215.761 55.9022 215.595 56.3062 215.496 56.7442C215.398 57.1821 215.349 57.6163 215.349 58.0468V64.6277H213.424ZM222.94 59.3833V57.6616H232.239L231.9 58.228C231.9 58.1827 231.9 58.1412 231.9 58.1034C231.9 58.0581 231.9 58.0166 231.9 57.9788C231.9 57.2841 231.752 56.6498 231.458 56.0759C231.171 55.4944 230.74 55.03 230.166 54.6827C229.593 54.3353 228.883 54.1616 228.037 54.1616C227.184 54.1616 226.432 54.3429 225.783 54.7053C225.134 55.0678 224.628 55.5813 224.265 56.2458C223.903 56.9027 223.721 57.6881 223.721 58.6018C223.721 59.5306 223.895 60.331 224.243 61.0031C224.597 61.6752 225.1 62.1924 225.749 62.5549C226.398 62.9173 227.169 63.0986 228.06 63.0986C228.694 63.0986 229.245 63.0344 229.713 62.906C230.182 62.7701 230.567 62.5926 230.869 62.3737C231.178 62.1471 231.412 61.9017 231.571 61.6374C231.73 61.3731 231.824 61.1088 231.854 60.8445H233.78C233.742 61.3278 233.591 61.8073 233.327 62.283C233.062 62.7588 232.689 63.193 232.205 63.5856C231.722 63.9708 231.129 64.2804 230.427 64.5144C229.725 64.7485 228.917 64.8656 228.003 64.8656C226.795 64.8656 225.73 64.6013 224.809 64.0727C223.888 63.5441 223.163 62.8116 222.634 61.8753C222.113 60.9389 221.853 59.8629 221.853 58.6471C221.853 57.4162 222.117 56.3364 222.645 55.4076C223.174 54.4712 223.903 53.7388 224.832 53.2102C225.76 52.6816 226.821 52.4173 228.014 52.4173C229.23 52.4173 230.284 52.6816 231.175 53.2102C232.066 53.7388 232.753 54.4637 233.236 55.3849C233.719 56.2986 233.961 57.3407 233.961 58.5112C233.961 58.632 233.957 58.7906 233.95 58.9869C233.942 59.1832 233.931 59.3154 233.916 59.3833H222.94Z" fill="#2FC18C"/>
</svg>
